<svg id="Layer_1" data-name="Layer 1" xmlns="http://www.w3.org/2000/svg" viewBox="0 0 512 512"><title>alarm-clock</title><circle cx="256" cy="256" r="256" fill="#004b75"/><path d="M352.2,399.39l-26.54-26.54,13.93-13.93,26.54,26.54a9.62,9.62,0,0,1,0,13.93h0C362.82,402.71,356.18,402.71,352.2,399.39Z" fill="#f8bf0e"/><path d="M159.8,399.39l26.54-26.54L172.4,358.92l-26.54,26.54a9.62,9.62,0,0,0,0,13.93h0C149.18,402.71,155.82,402.71,159.8,399.39Z" fill="#f8bf0e"/><circle cx="256" cy="262.72" r="132.69" fill="#e24324"/><circle cx="256" cy="262.72" r="106.15" fill="#eeeeed"/><rect x="182.42" y="290.59" width="86.24" height="5.31" transform="translate(-141.3 245.37) rotate(-45)" fill="#f8bf0e"/><rect x="249.37" y="176.47" width="13.27" height="86.25" fill="#004b75"/><rect x="269.74" y="253.53" width="15.26" height="61.03" transform="translate(-119.61 279.32) rotate(-45)" fill="#004b75"/><circle cx="256" cy="262.72" r="13.27"/><circle cx="256" cy="262.72" r="6.63" fill="#f8bf0e"/><rect x="242.73" y="110.12" width="26.54" height="19.9" fill="#f8bf0e"/><path d="M391.35,211c16.59-23.22,13.93-55.73-6.63-76.3s-53.08-23.22-76.3-6.63Z" fill="#f8bf0e"/><path d="M120.65,211c-16.59-23.22-13.93-55.73,6.63-76.3s53.08-23.22,76.3-6.63Z" fill="#f8bf0e"/></svg>